<svg width="108" height="108" viewBox="0 0 108 108" fill="none" xmlns="http://www.w3.org/2000/svg">
<g clip-path="url(#clip0)">
<path d="M54.0001 108C83.8236 108 108 83.8236 108 54.0001C108 24.1767 83.8236 0 54.0001 0C24.1767 0 0 24.1767 0 54.0001C0 83.8236 24.1767 108 54.0001 108Z" fill="#FFC10E"/>
<path d="M87.3158 54.0357C87.0123 72.4255 72.3864 87.0496 53.9966 87.3534C35.6061 87.6569 20.975 71.9668 20.679 54.0357C20.6339 51.2893 16.3705 51.285 16.4156 54.0357C16.7574 74.7549 33.2772 91.2747 53.9964 91.6166C74.7174 91.9584 91.2447 74.2406 91.579 54.0357C91.6244 51.285 87.3609 51.2893 87.3158 54.0357Z" fill="#333333"/>
<path d="M37.586 43.854C42.2698 43.854 46.0668 40.057 46.0668 35.3732C46.0668 30.6894 42.2698 26.8924 37.586 26.8924C32.9021 26.8924 29.1052 30.6894 29.1052 35.3732C29.1052 40.057 32.9021 43.854 37.586 43.854Z" fill="#333333"/>
<path d="M69.655 43.854C74.3388 43.854 78.1358 40.057 78.1358 35.3732C78.1358 30.6894 74.3388 26.8924 69.655 26.8924C64.9712 26.8924 61.1742 30.6894 61.1742 35.3732C61.1742 40.057 64.9712 43.854 69.655 43.854Z" fill="#333333"/>
</g>
<defs>
<clipPath id="clip0">
<rect width="108" height="108" fill="white"/>
</clipPath>
</defs>
</svg>
