<svg width="675" height="1318" viewBox="0 0 675 1318" fill="none" xmlns="http://www.w3.org/2000/svg">
<g clip-path="url(#clip0)">
<rect width="1306.16" height="1015" transform="matrix(0.0110051 0.999939 -0.999939 0.0110072 1015.9 0.412598)" fill="white"/>
<rect width="1600" height="1200" transform="matrix(0.0110051 0.999939 -0.999939 0.0110072 1015.9 0.412598)" fill="#060039"/>
<mask id="mask0" mask-type="alpha" maskUnits="userSpaceOnUse" x="-185" y="0" width="1219" height="1614">
<rect width="1600" height="1200" transform="matrix(0.0110051 0.999939 -0.999939 0.0110072 1015.9 0.412598)" fill="#060039"/>
</mask>
<g mask="url(#mask0)">
<path d="M140.324 683.092C140.363 686.681 143.305 689.559 146.895 689.52C150.484 689.48 153.362 686.538 153.323 682.948L140.324 683.092ZM-18.0617 505.387L-24.5613 505.459L-18.0617 505.387ZM-23.7463 579.514C-23.7068 583.103 -20.7648 585.981 -17.1752 585.942C-13.5855 585.902 -10.7076 582.96 -10.7471 579.371L-23.7463 579.514ZM-309.482 381.865C-309.443 385.454 -306.501 388.332 -302.911 388.293C-299.322 388.253 -296.444 385.311 -296.483 381.721L-309.482 381.865ZM-101.757 587.405C-98.1677 587.366 -95.2898 584.424 -95.3293 580.834C-95.3688 577.244 -98.3108 574.367 -101.9 574.406L-101.757 587.405ZM521.291 402.143C524.881 402.103 527.759 399.161 527.719 395.572C527.68 391.982 524.738 389.104 521.148 389.143L521.291 402.143ZM316.724 539.521L310.225 539.593L316.724 539.521ZM317.345 595.924L323.845 595.853L317.345 595.924ZM232.906 675.572C229.317 675.612 226.439 678.554 226.478 682.143C226.518 685.733 229.46 688.611 233.049 688.571L232.906 675.572ZM153.323 682.948L151.348 503.522L138.349 503.665L140.324 683.092L153.323 682.948ZM151.348 503.522C150.811 454.74 111.029 415.567 62.4206 416.102L62.5637 429.102C103.928 428.646 137.89 461.997 138.349 503.665L151.348 503.522ZM62.4206 416.102C13.8125 416.637 -25.0982 456.676 -24.5613 505.459L-11.5621 505.316C-12.0207 463.647 21.1998 429.557 62.5637 429.102L62.4206 416.102ZM-24.5613 505.459L-23.7463 579.514L-10.7471 579.371L-11.5621 505.316L-24.5613 505.459ZM-296.483 381.721L-296.601 371.025L-309.6 371.168L-309.482 381.865L-296.483 381.721ZM-296.601 371.025C-296.909 343.065 -274.459 320.135 -246.457 319.827L-246.6 306.828C-281.767 307.215 -309.987 336.015 -309.6 371.168L-296.601 371.025ZM-246.457 319.827C-218.443 319.519 -195.495 341.949 -195.187 369.909L-182.188 369.766C-182.575 334.611 -211.422 306.441 -246.6 306.828L-246.457 319.827ZM-195.187 369.909L-193.783 497.481L-180.784 497.338L-182.188 369.766L-195.187 369.909ZM-193.783 497.481C-193.23 547.705 -152.024 587.959 -101.757 587.405L-101.9 574.406C-145.002 574.881 -180.31 540.369 -180.784 497.338L-193.783 497.481ZM521.148 389.143L456.866 389.851L457.009 402.85L521.291 402.143L521.148 389.143ZM456.866 389.851C374.985 390.752 309.324 457.787 310.225 539.593L323.224 539.45C322.403 464.837 382.293 403.673 457.009 402.85L456.866 389.851ZM310.225 539.593L310.845 595.996L323.845 595.853L323.224 539.45L310.225 539.593ZM310.845 595.996C311.324 639.458 276.436 675.093 232.906 675.572L233.049 688.571C283.744 688.013 324.402 646.508 323.845 595.853L310.845 595.996Z" fill="#DA774A"/>
<path fill-rule="evenodd" clip-rule="evenodd" d="M678.392 592.163C678.635 614.254 696.739 631.964 718.829 631.721C740.92 631.478 758.63 613.373 758.387 591.283C758.144 569.193 740.039 551.482 717.949 551.726C695.859 551.969 678.149 570.073 678.392 592.163Z" stroke="#44AB96" stroke-width="13" stroke-linecap="round" stroke-linejoin="round"/>
<path d="M-105.059 1324.04C-185.103 1303.58 -266.331 1350.65 -286.494 1429.18C-306.644 1507.71 -258.095 1587.98 -178.051 1608.44C-98.0064 1628.91 -16.7819 1581.83 3.37797 1503.3" stroke="#44AB96" stroke-width="13" stroke-linecap="round" stroke-linejoin="round"/>
<path d="M-109.229 494.657C-109.19 498.247 -106.248 501.125 -102.658 501.085C-99.0683 501.046 -96.1903 498.104 -96.2298 494.514L-109.229 494.657ZM149.322 366.344C152.471 368.067 156.421 366.911 158.144 363.762C159.867 360.612 158.711 356.663 155.562 354.94L149.322 366.344ZM229.908 596.1C229.947 599.69 232.889 602.568 236.479 602.528C240.069 602.489 242.947 599.547 242.907 595.957L229.908 596.1ZM208.054 397.692C205.817 394.884 201.728 394.422 198.92 396.659C196.113 398.896 195.65 402.986 197.888 405.793L208.054 397.692ZM-96.2298 494.514C-97.1193 413.696 -25.9004 346.401 64.1271 345.41L63.9841 332.411C-32.084 333.468 -110.209 405.571 -109.229 494.657L-96.2298 494.514ZM64.1271 345.41C95.3178 345.067 124.496 352.761 149.322 366.344L155.562 354.94C128.788 340.291 97.4122 332.043 63.9841 332.411L64.1271 345.41ZM242.907 595.957L241.754 491.166L228.755 491.309L229.908 596.1L242.907 595.957ZM241.754 491.166C241.368 456.097 228.87 423.813 208.054 397.692L197.888 405.793C217.016 429.799 228.402 459.317 228.755 491.309L241.754 491.166Z" fill="#DA774A"/>
<path d="M694.535 332.47C694.185 300.715 668.16 275.257 636.405 275.606C604.65 275.956 579.192 301.981 579.542 333.736C579.891 365.491 605.916 390.949 637.671 390.599L695.168 389.967" stroke="#44AB96" stroke-width="13" stroke-linecap="round" stroke-linejoin="round"/>
<path d="M239.151 80.4673C238.747 43.7426 267.873 13.6471 304.207 13.2471C340.541 12.8472 370.322 42.2942 370.726 79.0189C371.13 115.744 342.004 145.839 305.671 146.239L104.474 148.454" stroke="#44AB96" stroke-width="13" stroke-linecap="round" stroke-linejoin="round"/>
<path d="M554.341 1095.06C554.69 1126.81 529.361 1152.84 497.766 1153.19C466.171 1153.53 440.275 1128.07 439.926 1096.32C439.576 1064.56 464.905 1038.54 496.5 1038.19L710.276 1035.84" stroke="#DA774A" stroke-width="13" stroke-linecap="round" stroke-linejoin="round"/>
<path d="M536.909 68.1891C536.559 36.4346 510.917 10.9717 479.633 11.3161C448.35 11.6604 423.274 37.6816 423.624 69.4361C423.973 101.191 449.616 126.653 480.899 126.309L712.239 123.763" stroke="#DA774A" stroke-width="13" stroke-linecap="round" stroke-linejoin="round"/>
<path d="M718.498 692.432C775.379 691.806 820.992 645.924 820.376 589.952C819.76 533.981 773.148 489.114 716.267 489.74C659.385 490.367 613.772 536.249 614.388 592.22L617.312 857.852" stroke="#FFB017" stroke-width="13" stroke-linecap="round" stroke-linejoin="round"/>
<path d="M394.431 1505.99C395.047 1561.97 441.659 1606.83 498.54 1606.2C555.422 1605.58 601.035 1559.7 600.419 1503.72L597.495 1238.09" stroke="#44AB96" stroke-width="13" stroke-linecap="round" stroke-linejoin="round"/>
<path fill-rule="evenodd" clip-rule="evenodd" d="M236.88 275.504C236.518 242.645 262.818 215.715 295.622 215.354L464.811 213.491C497.615 213.13 524.501 239.475 524.863 272.334V272.334C525.224 305.193 498.925 332.123 466.121 332.484L296.931 334.347C264.128 334.708 237.242 308.363 236.88 275.504V275.504Z" stroke="#FFB017" stroke-width="13" stroke-linecap="round" stroke-linejoin="round"/>
<path d="M318.555 836.139L407.884 835.156C433.379 834.875 454.276 855.465 454.558 881.145V881.145C454.841 906.824 434.402 927.869 408.907 928.15L230.25 930.117C204.754 930.397 183.857 909.807 183.575 884.128V884.128V884.128C183.292 858.448 203.731 837.403 229.226 837.122L250.809 836.885" stroke="#E53855" stroke-width="13" stroke-linecap="round" stroke-linejoin="round"/>
<path d="M153.742 81.6575L153.689 76.847C153.312 42.641 125.251 15.2171 91.011 15.594V15.594C56.771 15.9709 29.3199 44.0058 29.6964 78.2118L31.2714 221.325C31.6479 255.531 59.7093 282.955 93.9493 282.578V282.578C128.189 282.201 155.64 254.166 155.264 219.96L155.211 215.149" stroke="#FFB017" stroke-width="13" stroke-linecap="round" stroke-linejoin="round"/>
<path d="M453.199 757.652L221.577 760.202C152.344 760.964 96.8442 818.214 97.613 888.074C98.3819 957.934 155.129 1013.95 224.361 1013.19L279.085 1012.58" stroke="#44AB96" stroke-width="13" stroke-linecap="round" stroke-linejoin="round"/>
<path d="M410.386 593.114L409.845 543.93C409.481 510.898 436.048 483.824 469.183 483.46C502.318 483.095 529.474 509.577 529.837 542.609L530.92 640.976C531.284 674.008 504.717 701.082 471.582 701.446L466.252 701.505C436.06 701.838 411.317 677.708 410.986 647.61" stroke="#4484AB" stroke-width="13" stroke-linecap="round" stroke-linejoin="round"/>
<path d="M644.913 1094.06L645.531 1150.24C645.947 1187.97 675.16 1218.24 710.779 1217.84C746.399 1217.45 774.939 1186.55 774.524 1148.82L773.287 1036.46C772.872 998.735 743.659 968.468 708.039 968.86" stroke="#44AB96" stroke-width="13" stroke-linecap="round" stroke-linejoin="round"/>
<path d="M532.151 752.783L533.233 851.15C533.96 917.214 588.273 970.178 654.542 969.449" stroke="#4484AB" stroke-width="13" stroke-linecap="round" stroke-linejoin="round"/>
<path d="M225.486 1330.19L171.734 1330.79C117.479 1331.38 73.0113 1287.87 72.4139 1233.58L71.5697 1156.88" stroke="#4484AB" stroke-width="13" stroke-linecap="round" stroke-linejoin="round"/>
<path d="M495.517 1513.23L494.593 1429.23C493.924 1368.48 443.688 1319.79 382.389 1320.47" stroke="#DA774A" stroke-width="13" stroke-linecap="round" stroke-linejoin="round"/>
<path d="M779.404 47.5186C770.091 47.6211 652.864 48.9115 595.415 49.5439" stroke="#44AB96" stroke-width="13" stroke-linecap="round" stroke-linejoin="round"/>
<path d="M367.919 1096.11C360.226 1096.2 263.387 1097.26 215.928 1097.78" stroke="#44AB96" stroke-width="13" stroke-linecap="round" stroke-linejoin="round"/>
<path d="M531.571 1245.32C535.16 1245.28 538.038 1242.34 537.999 1238.75C537.959 1235.16 535.017 1232.28 531.428 1232.32L531.571 1245.32ZM218.588 1242.26L218.659 1248.76L218.588 1242.26ZM209.277 1242.37L209.205 1235.87L209.277 1242.37ZM164.657 1128.43C164.617 1124.84 161.675 1121.96 158.086 1122C154.496 1122.04 151.618 1124.98 151.658 1128.57L164.657 1128.43ZM29.9591 965.324C29.9196 961.734 26.9776 958.856 23.3879 958.895C19.7983 958.935 16.9204 961.877 16.9599 965.467L29.9591 965.324ZM124.984 1097.75C128.574 1097.71 131.452 1094.76 131.412 1091.18C131.373 1087.59 128.431 1084.71 124.841 1084.75L124.984 1097.75ZM531.428 1232.32L389.106 1233.89L389.249 1246.89L531.571 1245.32L531.428 1232.32ZM389.106 1233.89C370.352 1234.09 354.903 1218.93 354.694 1199.9L341.695 1200.04C341.982 1226.15 363.215 1247.17 389.249 1246.89L389.106 1233.89ZM354.694 1199.9C354.407 1173.79 333.156 1152.77 307.124 1153.05L307.267 1166.05C326.026 1165.85 341.485 1181.02 341.695 1200.04L354.694 1199.9ZM307.124 1153.05L298.714 1153.15L298.857 1166.15L307.267 1166.05L307.124 1153.05ZM298.714 1153.15C272.684 1153.43 251.9 1174.92 252.187 1201.03L265.186 1200.88C264.977 1181.86 280.1 1166.35 298.857 1166.15L298.714 1153.15ZM252.187 1201.03C252.397 1220.05 237.274 1235.56 218.516 1235.76L218.659 1248.76C244.691 1248.48 265.474 1226.99 265.186 1200.88L252.187 1201.03ZM218.516 1235.76L209.205 1235.87L209.348 1248.87L218.659 1248.76L218.516 1235.76ZM209.205 1235.87C185.305 1236.13 165.63 1216.81 165.363 1192.6L152.364 1192.74C152.708 1224.03 178.174 1249.21 209.348 1248.87L209.205 1235.87ZM165.363 1192.6L165.077 1166.57L152.078 1166.71L152.364 1192.74L165.363 1192.6ZM165.077 1166.57L164.657 1128.43L151.658 1128.57L152.078 1166.71L165.077 1166.57ZM16.9599 965.467L17.2545 992.241L30.2538 992.098L29.9591 965.324L16.9599 965.467ZM17.2545 992.241C17.9029 1051.15 66.1273 1098.39 124.984 1097.75L124.841 1084.75C73.1785 1085.32 30.8232 1043.84 30.2538 992.098L17.2545 992.241Z" fill="#FFB017"/>
<path d="M731.296 1484.64L711.015 1484.86C682.41 1485.17 658.965 1462.17 658.649 1433.49V1433.49C658.334 1404.8 681.266 1381.28 709.871 1380.97L726.67 1380.78C755.058 1380.47 777.816 1357.14 777.503 1328.67V1328.67C777.19 1300.2 753.923 1277.37 725.536 1277.69L704.861 1277.91" stroke="#E53855" stroke-width="13" stroke-linecap="round" stroke-linejoin="round"/>
<path fill-rule="evenodd" clip-rule="evenodd" d="M-89.2661 718.621C-88.9136 750.651 -62.8858 776.334 -31.1313 775.984C0.623142 775.635 26.0794 749.386 25.7269 717.355C25.3744 685.324 -0.653446 659.642 -32.4079 659.991C-64.1623 660.341 -89.6186 686.59 -89.2661 718.621Z" stroke="#E53855" stroke-width="13" stroke-linecap="round" stroke-linejoin="round"/>
<path d="M109.51 515.421L111.797 723.21C112.667 802.291 48.9052 867.109 -30.6188 867.984C-110.138 868.86 -175.316 805.461 -176.186 726.38L-176.874 663.87" stroke="#44AB96" stroke-width="13" stroke-linecap="round" stroke-linejoin="round"/>
</g>
</g>
<defs>
<clipPath id="clip0">
<rect width="1306.16" height="1015" fill="white" transform="matrix(0.0110051 0.999939 -0.999939 0.0110072 1015.9 0.412598)"/>
</clipPath>
</defs>
</svg>
