<svg width="236" height="1005" viewBox="0 0 236 1005" fill="none" xmlns="http://www.w3.org/2000/svg">
<path d="M-7.39098e-06 236.788C-7.39098e-06 106.435 105.662 0.765137 236 0.765137L236 236.788L-7.39098e-06 236.788Z" fill="#6ED47C"/>
<path d="M218 337.798C218 282.565 173.228 237.789 118 237.789V237.789C62.772 237.789 18 282.565 18 337.798V337.798C18 393.031 62.772 437.808 118 437.808H218V337.798Z" fill="#FFC700"/>
<path d="M217.999 386.077C217.999 357.508 194.841 334.349 166.274 334.349V334.349C137.708 334.349 114.551 357.508 114.551 386.077V386.077C114.551 414.647 137.708 437.807 166.274 437.807H217.999V386.077Z" fill="#FF743C"/>
<path d="M136 805C191.228 805 236 849.772 236 905V905C236 960.228 191.228 1005 136 1005V1005C80.772 1005 36 960.228 36 905V905C36 849.772 80.772 805 136 805V805Z" fill="#FF743C"/>
<path d="M137.034 849C167.694 849 192.551 873.857 192.551 904.517V904.517C192.551 935.178 167.694 960.034 137.034 960.034V960.034C106.373 960.034 81.5163 935.178 81.5163 904.517V904.517C81.5163 873.857 106.373 849 137.034 849V849Z" fill="#2D3652"/>
<rect x="35" y="440" width="200" height="200" fill="#FF7E6F"/>
<mask id="mask0" mask-type="alpha" maskUnits="userSpaceOnUse" x="35" y="440" width="200" height="200">
<rect x="35" y="440" width="200" height="200" fill="white"/>
</mask>
<g mask="url(#mask0)">
<path d="M234.724 691.381C262.948 691.381 285.829 668.501 285.829 640.276C285.829 612.052 262.948 589.171 234.724 589.171C206.499 589.171 183.619 612.052 183.619 640.276C183.619 668.501 206.499 691.381 234.724 691.381Z" fill="white"/>
<path d="M34.7237 490.829C62.9482 490.829 85.8287 467.948 85.8287 439.724C85.8287 411.499 62.9482 388.619 34.7237 388.619C6.49925 388.619 -16.3812 411.499 -16.3812 439.724C-16.3812 467.948 6.49925 490.829 34.7237 490.829Z" fill="white"/>
</g>
<mask id="mask1" mask-type="alpha" maskUnits="userSpaceOnUse" x="44" y="35" width="166" height="203">
<path d="M146.818 155.649V170.886H150.121C182.957 170.886 209.576 197.595 209.576 230.543V238H44.4243V230.543C44.4243 197.595 71.043 170.886 103.879 170.886H107.182V155.649C92.9479 148.864 82.7165 134.998 81.0096 118.587C76.1997 117.905 72.5 113.758 72.5 108.743V97.1429C72.5 92.2162 76.0711 88.1264 80.7576 87.3375V82.2286C80.7576 56.6026 101.461 35.8286 127 35.8286C152.539 35.8286 173.242 56.6026 173.242 82.2286V87.3375C177.929 88.1264 181.5 92.2162 181.5 97.1429V108.743C181.5 113.758 177.8 117.905 172.99 118.587C171.284 134.998 161.052 148.864 146.818 155.649Z" fill="white"/>
</mask>
<g mask="url(#mask1)">
<path d="M146.818 155.649V170.886H150.121C182.957 170.886 209.576 197.595 209.576 230.543V238H44.4243V230.543C44.4243 197.595 71.043 170.886 103.879 170.886H107.182V155.649C92.9479 148.864 82.7165 134.998 81.0096 118.587C76.1997 117.905 72.5 113.758 72.5 108.743V97.1429C72.5 92.2162 76.0711 88.1264 80.7576 87.3375V82.2286C80.7576 56.6026 101.461 35.8286 127 35.8286C152.539 35.8286 173.242 56.6026 173.242 82.2286V87.3375C177.929 88.1264 181.5 92.2162 181.5 97.1429V108.743C181.5 113.758 177.8 117.905 172.99 118.587C171.284 134.998 161.052 148.864 146.818 155.649Z" fill="#D0C6AC"/>
<path d="M262.424 35.8286H44.4243V267.829H262.424V35.8286Z" fill="#EDB98A"/>
<path fill-rule="evenodd" clip-rule="evenodd" d="M173.242 101.286V120.343C173.242 145.969 152.539 166.743 127 166.743C101.461 166.743 80.7576 145.969 80.7576 120.343V101.286V113.714C80.7576 139.34 101.461 160.114 127 160.114C152.539 160.114 173.242 139.34 173.242 113.714V101.286Z" fill="black" fill-opacity="0.1"/>
</g>
<mask id="mask2" mask-type="alpha" maskUnits="userSpaceOnUse" x="44" y="170" width="166" height="68">
<path fill-rule="evenodd" clip-rule="evenodd" d="M104.863 170.928H103.879C71.043 170.928 44.4243 197.638 44.4243 230.586V238H209.576V230.586C209.576 197.638 182.957 170.928 150.121 170.928H149.137C149.242 171.743 149.295 172.573 149.295 173.414C149.295 184.854 139.313 194.128 127 194.128C114.687 194.128 104.705 184.854 104.705 173.414C104.705 172.573 104.759 171.743 104.863 170.928Z" fill="white"/>
</mask>
<g mask="url(#mask2)">
<path fill-rule="evenodd" clip-rule="evenodd" d="M104.863 170.928H103.879C71.043 170.928 44.4243 197.638 44.4243 230.586V238H209.576V230.586C209.576 197.638 182.957 170.928 150.121 170.928H149.137C149.242 171.743 149.295 172.573 149.295 173.414C149.295 184.854 139.313 194.128 127 194.128C114.687 194.128 104.705 184.854 104.705 173.414C104.705 172.573 104.759 171.743 104.863 170.928Z" fill="#E6E6E6"/>
<path d="M236 146.857H18V238H236V146.857Z" fill="#E6E6E6"/>
<path fill-rule="evenodd" clip-rule="evenodd" d="M146.818 165.317C151.923 169.092 155.076 174.288 155.076 180.023C155.076 185.994 151.659 191.379 146.182 195.185L141.516 191.498L137.735 191.772L138.561 189.161L138.496 189.111C143.534 186.507 146.818 182.237 146.818 177.412V165.317ZM107.182 164.731C101.594 168.544 98.0985 173.984 98.0985 180.023C98.0985 186.153 101.7 191.666 107.437 195.487L112.484 191.498L116.265 191.772L115.439 189.161L115.504 189.111C110.466 186.507 107.182 182.237 107.182 177.412V164.731Z" fill="#F2F2F2"/>
</g>
<path fill-rule="evenodd" clip-rule="evenodd" d="M115.439 129.457C115.439 135.864 120.615 141.057 127 141.057C133.385 141.057 138.561 135.864 138.561 129.457" fill="black" fill-opacity="0.7"/>
<path fill-rule="evenodd" clip-rule="evenodd" d="M117.091 113.714C117.091 117.375 121.527 120.343 127 120.343C132.473 120.343 136.909 117.375 136.909 113.714" fill="black" fill-opacity="0.16"/>
<path d="M105.53 103.771C108.267 103.771 110.485 101.546 110.485 98.8C110.485 96.0544 108.267 93.8286 105.53 93.8286C102.794 93.8286 100.576 96.0544 100.576 98.8C100.576 101.546 102.794 103.771 105.53 103.771Z" fill="black" fill-opacity="0.6"/>
<path d="M148.47 103.771C151.206 103.771 153.424 101.546 153.424 98.8C153.424 96.0544 151.206 93.8286 148.47 93.8286C145.733 93.8286 143.515 96.0544 143.515 98.8C143.515 101.546 145.733 103.771 148.47 103.771Z" fill="black" fill-opacity="0.6"/>
<path d="M93.6643 88.1601C96.8971 83.5957 105.76 81.0363 113.394 82.9174C114.28 83.1357 115.174 82.5921 115.392 81.7033C115.609 80.8145 115.067 79.917 114.182 79.6987C105.316 77.5141 95.0531 80.4779 90.972 86.2402C90.4436 86.9862 90.618 88.0207 91.3614 88.5509C92.1049 89.0811 93.136 88.9061 93.6643 88.1601Z" fill="black" fill-opacity="0.6"/>
<path d="M160.336 88.1601C157.103 83.5957 148.24 81.0363 140.606 82.9174C139.72 83.1357 138.826 82.5921 138.608 81.7033C138.391 80.8145 138.933 79.917 139.818 79.6987C148.684 77.5141 158.947 80.4779 163.028 86.2402C163.557 86.9862 163.382 88.0207 162.639 88.5509C161.895 89.0811 160.864 88.9061 160.336 88.1601Z" fill="black" fill-opacity="0.6"/>
<mask id="mask3" mask-type="alpha" maskUnits="userSpaceOnUse" x="18" y="6" width="218" height="232">
<path d="M236 6H18V238H236V6Z" fill="white"/>
</mask>
<g mask="url(#mask3)">
<mask id="mask4" mask-type="alpha" maskUnits="userSpaceOnUse" x="78" y="20" width="97" height="69">
<path fill-rule="evenodd" clip-rule="evenodd" d="M165.934 39.0769C163.656 36.7403 161.01 34.7571 158.436 32.7683C157.868 32.3299 157.291 31.902 156.736 31.4469C156.61 31.3435 155.317 30.4144 155.162 30.0725C154.79 29.2499 155.006 29.8904 155.057 28.9088C155.122 27.6675 157.644 24.1617 155.762 23.3577C154.934 23.0041 153.457 23.9451 152.663 24.2559C151.109 24.8642 149.536 25.3829 147.93 25.8302C148.7 24.2918 150.167 21.2121 147.409 22.0364C145.261 22.6786 143.259 24.3296 141.1 25.1063C141.815 23.9315 144.671 20.2911 142.09 20.0876C141.287 20.0242 138.95 21.536 138.085 21.8585C135.495 22.8245 132.849 23.4489 130.13 23.9407C120.883 25.6129 110.07 25.1361 101.514 29.3603C94.9189 32.6168 88.4061 37.6697 84.596 44.1039C80.9237 50.3058 79.5501 57.0932 78.7815 64.1999C78.2175 69.4154 78.1716 74.8067 78.4354 80.0411C78.5216 81.7561 78.7138 89.6615 81.1968 87.2674C82.4339 86.0745 82.4248 81.2576 82.7363 79.6272C83.3564 76.3832 83.9533 73.1248 84.9871 69.9845C86.8089 64.4507 88.958 58.556 93.4964 54.7446C96.4089 52.2991 98.4542 48.9937 101.241 46.5264C102.493 45.4183 101.538 45.5337 103.551 45.6791C104.903 45.7767 106.261 45.8139 107.616 45.8495C110.751 45.9312 113.891 45.9104 117.026 45.9215C123.34 45.9443 129.625 46.0338 135.934 45.7022C138.737 45.5548 141.548 45.475 144.344 45.2148C145.906 45.0694 148.677 44.065 149.963 44.8326C151.14 45.5348 152.362 47.8277 153.206 48.7668C155.203 50.9861 157.582 52.681 159.917 54.5008C164.784 58.2952 167.241 63.0609 168.719 68.9907C170.192 74.8984 169.779 80.3793 171.602 86.1931C171.923 87.2153 172.771 88.9772 173.817 87.3979C174.011 87.1046 173.96 85.4923 173.96 84.5646C173.96 80.8196 174.906 78.0098 174.894 74.2404C174.847 62.7796 174.478 47.8352 165.934 39.0769Z" fill="white"/>
</mask>
<g mask="url(#mask4)">
<path fill-rule="evenodd" clip-rule="evenodd" d="M165.934 39.0769C163.656 36.7403 161.01 34.7571 158.436 32.7683C157.868 32.3299 157.291 31.902 156.736 31.4469C156.61 31.3435 155.317 30.4144 155.162 30.0725C154.79 29.2499 155.006 29.8904 155.057 28.9088C155.122 27.6675 157.644 24.1617 155.762 23.3577C154.934 23.0041 153.457 23.9451 152.663 24.2559C151.109 24.8642 149.536 25.3829 147.93 25.8302C148.7 24.2918 150.167 21.2121 147.409 22.0364C145.261 22.6786 143.259 24.3296 141.1 25.1063C141.815 23.9315 144.671 20.2911 142.09 20.0876C141.287 20.0242 138.95 21.536 138.085 21.8585C135.495 22.8245 132.849 23.4489 130.13 23.9407C120.883 25.6129 110.07 25.1361 101.514 29.3603C94.9189 32.6168 88.4061 37.6697 84.596 44.1039C80.9237 50.3058 79.5501 57.0932 78.7815 64.1999C78.2175 69.4154 78.1716 74.8067 78.4354 80.0411C78.5216 81.7561 78.7138 89.6615 81.1968 87.2674C82.4339 86.0745 82.4248 81.2576 82.7363 79.6272C83.3564 76.3832 83.9533 73.1248 84.9871 69.9845C86.8089 64.4507 88.958 58.556 93.4964 54.7446C96.4089 52.2991 98.4542 48.9937 101.241 46.5264C102.493 45.4183 101.538 45.5337 103.551 45.6791C104.903 45.7767 106.261 45.8139 107.616 45.8495C110.751 45.9312 113.891 45.9104 117.026 45.9215C123.34 45.9443 129.625 46.0338 135.934 45.7022C138.737 45.5548 141.548 45.475 144.344 45.2148C145.906 45.0694 148.677 44.065 149.963 44.8326C151.14 45.5348 152.362 47.8277 153.206 48.7668C155.203 50.9861 157.582 52.681 159.917 54.5008C164.784 58.2952 167.241 63.0609 168.719 68.9907C170.192 74.8984 169.779 80.3793 171.602 86.1931C171.923 87.2153 172.771 88.9772 173.817 87.3979C174.011 87.1046 173.96 85.4923 173.96 84.5646C173.96 80.8196 174.906 78.0098 174.894 74.2404C174.847 62.7796 174.478 47.8352 165.934 39.0769Z" fill="#1F3140"/>
<path d="M235.174 6H17.1742V238H235.174V6Z" fill="#4A312C"/>
</g>
</g>
<path d="M57 721H143C190.496 721 229 759.504 229 807V807H143C95.5039 807 57 768.496 57 721V721Z" fill="#FFC700"/>
<path d="M57 721H143C190.496 721 229 682.496 229 635L143 635C95.5039 635 57 673.504 57 721Z" fill="#FF743C"/>
<mask id="mask5" mask-type="alpha" maskUnits="userSpaceOnUse" x="45" y="427" width="176" height="213">
<path d="M153.909 553.389V569.414H157.394C192.037 569.414 220.121 597.505 220.121 632.157V640H45.8788V632.157C45.8788 597.505 73.9627 569.414 108.606 569.414H112.091V553.389C97.0735 546.254 86.2788 531.67 84.478 514.411C79.4033 513.693 75.5 509.331 75.5 504.057V491.857C75.5 486.676 79.2676 482.374 84.2121 481.544V476.171C84.2121 449.22 106.055 427.371 133 427.371C159.945 427.371 181.788 449.22 181.788 476.171V481.544C186.732 482.374 190.5 486.676 190.5 491.857V504.057C190.5 509.331 186.597 513.693 181.522 514.411C179.721 531.67 168.926 546.254 153.909 553.389Z" fill="white"/>
</mask>
<g mask="url(#mask5)">
<path d="M153.909 553.389V569.414H157.394C192.037 569.414 220.121 597.505 220.121 632.157V640H45.8788V632.157C45.8788 597.505 73.9627 569.414 108.606 569.414H112.091V553.389C97.0735 546.254 86.2788 531.67 84.478 514.411C79.4033 513.693 75.5 509.331 75.5 504.057V491.857C75.5 486.676 79.2676 482.374 84.2121 481.544V476.171C84.2121 449.22 106.055 427.371 133 427.371C159.945 427.371 181.788 449.22 181.788 476.171V481.544C186.732 482.374 190.5 486.676 190.5 491.857V504.057C190.5 509.331 186.597 513.693 181.522 514.411C179.721 531.67 168.926 546.254 153.909 553.389Z" fill="#D0C6AC"/>
<path d="M275.879 427.371H45.8788V671.371H275.879V427.371Z" fill="#EDB98A"/>
<path fill-rule="evenodd" clip-rule="evenodd" d="M181.788 496.214V516.257C181.788 543.208 159.945 565.057 133 565.057C106.055 565.057 84.2121 543.208 84.2121 516.257V496.214V509.286C84.2121 536.237 106.055 558.086 133 558.086C159.945 558.086 181.788 536.237 181.788 509.286V496.214Z" fill="black" fill-opacity="0.1"/>
</g>
<mask id="mask6" mask-type="alpha" maskUnits="userSpaceOnUse" x="45" y="555" width="176" height="85">
<path fill-rule="evenodd" clip-rule="evenodd" d="M112.091 555.533C96.4799 557.28 84.4559 562.052 84.2158 574.333C61.6882 583.852 45.8788 606.158 45.8788 632.157V640H220.121V632.157C220.121 606.158 204.312 583.852 181.784 574.333C181.544 562.052 169.52 557.28 153.909 555.533V572.029C153.909 583.579 144.548 592.943 133 592.943C121.452 592.943 112.091 583.579 112.091 572.029V555.533Z" fill="white"/>
</mask>
<g mask="url(#mask6)">
<path fill-rule="evenodd" clip-rule="evenodd" d="M112.091 555.533C96.4799 557.28 84.4559 562.052 84.2158 574.333C61.6882 583.852 45.8788 606.158 45.8788 632.157V640H220.121V632.157C220.121 606.158 204.312 583.852 181.784 574.333C181.544 562.052 169.52 557.28 153.909 555.533V572.029C153.909 583.579 144.548 592.943 133 592.943C121.452 592.943 112.091 583.579 112.091 572.029V555.533Z" fill="#B7C1DB"/>
<path d="M248 544.143H18V640H248V544.143Z" fill="#3C4F5C"/>
<path fill-rule="evenodd" clip-rule="evenodd" d="M106.864 597.944V640H100.765V594.817C102.685 595.958 104.726 597.004 106.864 597.944ZM165.235 594.817V629.979C165.235 631.663 163.87 633.029 162.186 633.029C160.502 633.029 159.136 631.663 159.136 629.979V597.944C161.274 597.004 163.315 595.958 165.235 594.817Z" fill="#F4F4F4"/>
<path fill-rule="evenodd" clip-rule="evenodd" d="M97.2456 555.231C84.1331 557.712 75.0644 562.654 75.0644 572.297C75.0644 589.475 103.847 603.4 133 603.4C162.153 603.4 190.936 589.475 190.936 572.297C190.936 562.654 181.867 557.712 168.754 555.231C176.669 558.151 181.788 563.058 181.788 571.224C181.788 588.994 157.55 603.4 133 603.4C108.45 603.4 84.2121 588.994 84.2121 571.224C84.2121 563.058 89.3306 558.151 97.2456 555.231Z" fill="black" fill-opacity="0.16"/>
</g>
<path fill-rule="evenodd" clip-rule="evenodd" d="M120.803 525.843C120.803 532.581 126.264 538.043 133 538.043C139.736 538.043 145.197 532.581 145.197 525.843" fill="black" fill-opacity="0.7"/>
<path fill-rule="evenodd" clip-rule="evenodd" d="M122.545 509.286C122.545 513.136 127.226 516.257 133 516.257C138.774 516.257 143.455 513.136 143.455 509.286" fill="black" fill-opacity="0.16"/>
<path d="M110.348 498.828C113.235 498.828 115.576 496.488 115.576 493.6C115.576 490.712 113.235 488.371 110.348 488.371C107.462 488.371 105.121 490.712 105.121 493.6C105.121 496.488 107.462 498.828 110.348 498.828Z" fill="black" fill-opacity="0.6"/>
<path d="M155.652 498.828C158.538 498.828 160.879 496.488 160.879 493.6C160.879 490.712 158.538 488.371 155.652 488.371C152.765 488.371 150.424 490.712 150.424 493.6C150.424 496.488 152.765 498.828 155.652 498.828Z" fill="black" fill-opacity="0.6"/>
<path d="M97.8294 482.41C101.24 477.609 110.591 474.917 118.645 476.896C119.58 477.125 120.523 476.554 120.753 475.619C120.982 474.684 120.411 473.74 119.476 473.511C110.122 471.213 99.2946 474.33 94.9888 480.39C94.4313 481.175 94.6153 482.263 95.3997 482.821C96.1841 483.378 97.2719 483.194 97.8294 482.41Z" fill="black" fill-opacity="0.6"/>
<path d="M168.171 482.41C164.76 477.609 155.41 474.917 147.355 476.896C146.421 477.125 145.477 476.554 145.248 475.619C145.018 474.684 145.59 473.74 146.524 473.511C155.878 471.213 166.706 474.33 171.011 480.39C171.569 481.175 171.385 482.263 170.601 482.821C169.816 483.378 168.728 483.194 168.171 482.41Z" fill="black" fill-opacity="0.6"/>
<mask id="mask7" mask-type="alpha" maskUnits="userSpaceOnUse" x="18" y="396" width="230" height="244">
<path d="M248 396H18V640H248V396Z" fill="white"/>
</mask>
<g mask="url(#mask7)">
<mask id="mask8" mask-type="alpha" maskUnits="userSpaceOnUse" x="51" y="413" width="164" height="158">
<path fill-rule="evenodd" clip-rule="evenodd" d="M84.2121 481.713V509.286C84.2121 528.753 95.6079 545.557 112.091 553.39V564.836C94.9826 567.178 81.2857 571.3 71.479 570.286C59.0878 569.005 52.4096 543.965 51.9773 522.357C51.4396 495.486 76.6491 439.393 85.9546 428.243C92.8573 419.972 111.825 413.037 133 413.429C154.175 413.82 173.827 418.494 180.917 427.372C191.654 440.816 213.908 491.926 214.023 522.357C214.104 543.969 205.714 565.632 193.985 566.8C184.332 567.761 170.876 565.503 153.909 564.183V553.39C170.392 545.557 181.788 528.753 181.788 509.286V484.876C173.493 480.642 165.987 475.516 159.27 469.497C162.066 474.112 165.103 478.043 168.383 481.289C144.845 474.684 126.122 463.492 112.214 447.715C105.26 462.063 95.9266 473.395 84.2121 481.713V481.713Z" fill="white"/>
</mask>
<g mask="url(#mask8)">
<path fill-rule="evenodd" clip-rule="evenodd" d="M84.2121 481.713V509.286C84.2121 528.753 95.6079 545.557 112.091 553.39V564.836C94.9826 567.178 81.2857 571.3 71.479 570.286C59.0878 569.005 52.4096 543.965 51.9773 522.357C51.4396 495.486 76.6491 439.393 85.9546 428.243C92.8573 419.972 111.825 413.037 133 413.429C154.175 413.82 173.827 418.494 180.917 427.372C191.654 440.816 213.908 491.926 214.023 522.357C214.104 543.969 205.714 565.632 193.985 566.8C184.332 567.761 170.876 565.503 153.909 564.183V553.39C170.392 545.557 181.788 528.753 181.788 509.286V484.876C173.493 480.642 165.987 475.516 159.27 469.497C162.066 474.112 165.103 478.043 168.383 481.289C144.845 474.684 126.122 463.492 112.214 447.715C105.26 462.063 95.9266 473.395 84.2121 481.713V481.713Z" fill="#E6E6E6"/>
<path d="M281.106 412.557H51.1061V656.557H281.106V412.557Z" fill="#A55728"/>
</g>
</g>
</svg>
