<svg width="247" height="1099" viewBox="0 0 247 1099" fill="none" xmlns="http://www.w3.org/2000/svg">
<path d="M230 280H0V50V50C127.025 50 230 152.975 230 280V280Z" fill="#FFC700"/>
<mask id="mask0" mask-type="alpha" maskUnits="userSpaceOnUse" x="15" y="36" width="200" height="244">
<path d="M139 180.611V199H143C182.765 199 215 231.235 215 271V280H15V271C15 231.235 47.2355 199 87 199H91V180.611C73.7626 172.422 61.3722 155.687 59.3051 135.881C53.4803 135.058 49 130.052 49 124V110C49 104.054 53.3246 99.1181 59 98.1659V92C59 61.0721 84.0721 36 115 36C145.928 36 171 61.0721 171 92V98.1659C176.675 99.1181 181 104.054 181 110V124C181 130.052 176.52 135.058 170.695 135.881C168.628 155.687 156.237 172.422 139 180.611Z" fill="white"/>
</mask>
<g mask="url(#mask0)">
<path d="M139 180.611V199H143C182.765 199 215 231.235 215 271V280H15V271C15 231.235 47.2355 199 87 199H91V180.611C73.7626 172.422 61.3722 155.687 59.3051 135.881C53.4803 135.058 49 130.052 49 124V110C49 104.054 53.3246 99.1181 59 98.1659V92C59 61.0721 84.0721 36 115 36C145.928 36 171 61.0721 171 92V98.1659C176.675 99.1181 181 104.054 181 110V124C181 130.052 176.52 135.058 170.695 135.881C168.628 155.687 156.237 172.422 139 180.611Z" fill="#D0C6AC"/>
<path d="M279 36H15V316H279V36Z" fill="#EDB98A"/>
<path fill-rule="evenodd" clip-rule="evenodd" d="M171 115V138C171 168.928 145.928 194 115 194C84.0721 194 59 168.928 59 138V115V130C59 160.928 84.0721 186 115 186C145.928 186 171 160.928 171 130V115Z" fill="black" fill-opacity="0.1"/>
</g>
<mask id="mask1" mask-type="alpha" maskUnits="userSpaceOnUse" x="15" y="199" width="200" height="81">
<path fill-rule="evenodd" clip-rule="evenodd" d="M148.96 199.295C185.936 202.325 215 233.294 215 271.052V280H15V271.052C15 232.953 44.592 201.765 82.0454 199.219C82.0153 199.593 82 199.969 82 200.348C82 212.211 96.9985 221.828 115.5 221.828C134.002 221.828 149 212.211 149 200.348C149 199.995 148.987 199.644 148.96 199.295Z" fill="white"/>
</mask>
<g mask="url(#mask1)">
<path fill-rule="evenodd" clip-rule="evenodd" d="M148.96 199.295C185.936 202.325 215 233.294 215 271.052V280H15V271.052C15 232.953 44.592 201.765 82.0454 199.219C82.0153 199.593 82 199.969 82 200.348C82 212.211 96.9985 221.828 115.5 221.828C134.002 221.828 149 212.211 149 200.348C149 199.995 148.987 199.644 148.96 199.295Z" fill="#E6E6E6"/>
<path d="M247 170H-17V280H247V170Z" fill="#262E33"/>
<g opacity="0.6">
<g opacity="0.6">
<path opacity="0.6" d="M115.5 228.761C137.39 228.761 155.135 216.712 155.135 201.848C155.135 186.984 137.39 174.934 115.5 174.934C93.6101 174.934 75.8649 186.984 75.8649 201.848C75.8649 216.712 93.6101 228.761 115.5 228.761Z" fill="black" fill-opacity="0.16"/>
</g>
</g>
</g>
<path fill-rule="evenodd" clip-rule="evenodd" d="M83.7848 199.122C45.5123 200.804 15 232.365 15 271.052H15V280H84.3617C80.9607 267.92 79 253.709 79 238.5C79 224.173 80.74 210.731 83.7848 199.122ZM146.638 280H215V271.052C215 232.707 185.025 201.363 147.229 199.174C150.265 210.771 152 224.194 152 238.5C152 253.709 150.039 267.92 146.638 280Z" fill="#3A4C5A"/>
<path fill-rule="evenodd" clip-rule="evenodd" d="M164 256L173.556 248.833C174.999 247.751 176.988 247.768 178.412 248.876L185 254L164 256Z" fill="#E6E6E6"/>
<path fill-rule="evenodd" clip-rule="evenodd" d="M84 198C80 217.333 81.6667 244.667 89 280H73L59 244L65 235L59 229L78 199C80.0277 198.369 82.0277 198.036 84 198Z" fill="#2F4351"/>
<path fill-rule="evenodd" clip-rule="evenodd" d="M146 198C150 217.333 148.333 244.667 141 280H157L171 244L165 235L171 229L152 199C149.972 198.369 147.972 198.036 146 198Z" fill="#2F4351"/>
<mask id="mask2" mask-type="alpha" maskUnits="userSpaceOnUse" x="96" y="147" width="38" height="19">
<path fill-rule="evenodd" clip-rule="evenodd" d="M96.1178 149.128C97.1757 158.62 105.226 166 115 166C124.804 166 132.874 158.574 133.892 149.04C133.974 148.273 133.117 147 132.043 147C117.149 147 105.738 147 98.0868 147C97.0066 147 96.012 148.178 96.1178 149.128Z" fill="white"/>
</mask>
<g mask="url(#mask2)">
<path fill-rule="evenodd" clip-rule="evenodd" d="M96.1178 149.128C97.1757 158.62 105.226 166 115 166C124.804 166 132.874 158.574 133.892 149.04C133.974 148.273 133.117 147 132.043 147C117.149 147 105.738 147 98.0868 147C97.0066 147 96.012 148.178 96.1178 149.128Z" fill="black" fill-opacity="0.7"/>
<path d="M126 136H105C102.239 136 99.9999 138.239 99.9999 141V147C99.9999 149.761 102.239 152 105 152H126C128.761 152 131 149.761 131 147V141C131 138.239 128.761 136 126 136Z" fill="white"/>
<path d="M110 180C116.075 180 121 175.075 121 169C121 162.925 116.075 158 110 158C103.925 158 98.9999 162.925 98.9999 169C98.9999 175.075 103.925 180 110 180Z" fill="#FF4F6D"/>
<path d="M120 180C126.075 180 131 175.075 131 169C131 162.925 126.075 158 120 158C113.925 158 109 162.925 109 169C109 175.075 113.925 180 120 180Z" fill="#FF4F6D"/>
</g>
<path fill-rule="evenodd" clip-rule="evenodd" d="M103 130C103 134.418 108.373 138 115 138C121.627 138 127 134.418 127 130" fill="black" fill-opacity="0.16"/>
<path d="M89 118C92.3137 118 95 115.314 95 112C95 108.686 92.3137 106 89 106C85.6863 106 83 108.686 83 112C83 115.314 85.6863 118 89 118Z" fill="black" fill-opacity="0.6"/>
<path d="M141 118C144.314 118 147 115.314 147 112C147 108.686 144.314 106 141 106C137.686 106 135 108.686 135 112C135 115.314 137.686 118 141 118Z" fill="black" fill-opacity="0.6"/>
<path d="M74.6302 99.1585C78.5451 93.6498 89.2779 90.5607 98.523 92.8311C99.5957 93.0945 100.679 92.4384 100.942 91.3658C101.206 90.2931 100.55 89.2099 99.4769 88.9465C88.7403 86.3099 76.3121 89.8869 71.3697 96.8413C70.7299 97.7417 70.941 98.9903 71.8414 99.6301C72.7418 100.27 73.9904 100.059 74.6302 99.1585Z" fill="black" fill-opacity="0.6"/>
<path d="M155.37 99.1585C151.455 93.6498 140.722 90.5607 131.477 92.8311C130.405 93.0945 129.321 92.4384 129.058 91.3658C128.795 90.2931 129.451 89.2099 130.523 88.9465C141.26 86.3099 153.688 89.8869 158.631 96.8413C159.27 97.7417 159.059 98.9903 158.159 99.6301C157.258 100.27 156.01 100.059 155.37 99.1585Z" fill="black" fill-opacity="0.6"/>
<mask id="mask3" mask-type="alpha" maskUnits="userSpaceOnUse" x="-17" y="0" width="264" height="280">
<path d="M247 0H-17V280H247V0Z" fill="white"/>
</mask>
<g mask="url(#mask3)">
<mask id="mask4" mask-type="alpha" maskUnits="userSpaceOnUse" x="41" y="18" width="148" height="258">
<path fill-rule="evenodd" clip-rule="evenodd" d="M174.506 99.3351C178.364 101.331 181 105.357 181 110V123C181 129.019 176.569 134.002 170.791 134.867C169.048 155.115 156.531 172.283 139 180.611V199H143C160.491 199 176.525 205.237 189 215.608V92C189 71.5655 180.717 53.0655 167.326 39.6741C153.935 26.2827 135.435 18 115 18C74.1309 18 41 51.1309 41 92V275.716C54.5692 273.776 65 262.106 65 248V202.423C71.9347 200.2 79.3272 199 87 199H91V180.611C79.7726 175.277 70.6015 166.318 65 155.246V93.266C74.1468 90.291 83.7776 86.0171 93.3415 80.4953C108.745 71.6024 121.431 60.9409 130.066 50.397C131.831 55.5951 134.175 60.801 137.11 65.8848C145.878 81.0705 158.224 92.2337 171 97.917V98.1659C171.4 98.2331 171.794 98.3201 172.18 98.4259C172.955 98.7493 173.73 99.0525 174.506 99.3351Z" fill="white"/>
</mask>
<g mask="url(#mask4)">
<path fill-rule="evenodd" clip-rule="evenodd" d="M174.506 99.3351C178.364 101.331 181 105.357 181 110V123C181 129.019 176.569 134.002 170.791 134.867C169.048 155.115 156.531 172.283 139 180.611V199H143C160.491 199 176.525 205.237 189 215.608V92C189 71.5655 180.717 53.0655 167.326 39.6741C153.935 26.2827 135.435 18 115 18C74.1309 18 41 51.1309 41 92V275.716C54.5692 273.776 65 262.106 65 248V202.423C71.9347 200.2 79.3272 199 87 199H91V180.611C79.7726 175.277 70.6015 166.318 65 155.246V93.266C74.1468 90.291 83.7776 86.0171 93.3415 80.4953C108.745 71.6024 121.431 60.9409 130.066 50.397C131.831 55.5951 134.175 60.801 137.11 65.8848C145.878 81.0705 158.224 92.2337 171 97.917V98.1659C171.4 98.2331 171.794 98.3201 172.18 98.4259C172.955 98.7493 173.73 99.0525 174.506 99.3351Z" fill="#944F23"/>
<path d="M305 18H41V298H305V18Z" fill="#4A312C"/>
</g>
<path fill-rule="evenodd" clip-rule="evenodd" d="M174.506 99.3351C179.374 101.108 184.263 102.072 189 102.148V92C189 71.5654 180.717 53.0654 167.326 39.6741C180.717 53.0654 189 71.5654 189 92V215.608C176.525 205.237 160.491 199 143 199H139V180.611C156.531 172.283 169.048 155.115 170.791 134.867C176.569 134.002 181 129.019 181 123V110C181 105.357 178.364 101.331 174.506 99.3351ZM172.18 98.4259C171.794 98.3201 171.4 98.2331 171 98.1659V97.917C171.393 98.0918 171.786 98.2615 172.18 98.4259ZM65 155.246C70.6015 166.318 79.7726 175.277 91 180.611V199H87C79.3272 199 71.9347 200.2 65 202.423V155.246Z" fill="black" fill-opacity="0.24"/>
</g>
<path d="M195 899.001V899.001C195 1009.46 105.456 1099 -5 1099V1099L-5 899.001H195Z" fill="#6ED47C"/>
<path d="M97.069 899C97.069 955.372 51.3721 1001.07 -5 1001.07L-5 899H97.069Z" fill="#D5E155"/>
<path d="M235 401H115C48.7264 401 -5 454.726 -5 521V521H115C181.274 521 235 467.274 235 401V401Z" fill="#FFC700"/>
<path d="M235 401H115C48.7264 401 -5 347.274 -5 281L115 281C181.274 281 235 334.726 235 401Z" fill="#FF743C"/>
<rect x="-10" y="907" width="200" height="200" transform="rotate(-90 -10 907)" fill="#FFC700"/>
<path d="M189.796 884C92.1541 884 13 804.846 13 707.204V707.204H134.796C165.171 707.204 189.796 731.829 189.796 762.204V884V884Z" fill="#5C7985"/>
<path d="M175 740.978C175 732.282 167.95 725.232 159.254 725.232C150.558 725.232 143.508 732.282 143.508 740.978C143.508 749.674 150.558 756.724 159.254 756.724C167.95 756.724 175 749.674 175 740.978Z" fill="#FF7E6F"/>
<path d="M18 615.5C18 564.966 58.9664 524 109.5 524V524C160.034 524 201 564.966 201 615.5V615.5C201 666.034 160.034 707 109.5 707H18V615.5Z" fill="#6ED47C"/>
<path d="M18 659.499C18 633.266 39.2664 612 65.5009 612V612C91.7336 612 113 633.266 113 659.499V659.499C113 685.734 91.7336 707 65.5009 707H18V659.499Z" fill="#D5E155"/>
</svg>
